/* XPM */
static char *_64c886d7eb9452db04c4958360718f4HUxeRbTiCJsseADu[] = {
/* columns rows colors chars-per-pixel */
"64 64 67 1 ",
"  c #030202",
". c #090606",
"X c #0D0A0A",
"o c #130E0E",
"O c #161212",
"+ c #1C1414",
"@ c #1E1818",
"# c #211616",
"$ c #241A1A",
"% c #2A1D1D",
"& c #301F1F",
"* c #2C2121",
"= c #342323",
"- c #3A2626",
"; c #342828",
": c #3E2929",
"> c #432C2C",
", c #492F2F",
"< c #473030",
"1 c #4C3232",
"2 c #543636",
"3 c #563939",
"4 c #5D3B3B",
"5 c #5B3C3C",
"6 c #5F3D3D",
"7 c #603E3E",
"8 c #643F3F",
"9 c #5E4141",
"0 c #624141",
"q c #644040",
"w c #654343",
"e c #684343",
"r c #6B4444",
"t c #6C4545",
"y c #6D4949",
"u c #704747",
"i c #724949",
"p c #744A4A",
"a c #754C4C",
"s c #774C4C",
"d c #794E4E",
"f c #7C4F4F",
"g c #7D5151",
"h c #7E5151",
"j c #805252",
"k c #835454",
"l c #875757",
"z c #885757",
"x c #875858",
"c c #895858",
"v c #8D5A5A",
"b c #8E5B5B",
"n c #915D5D",
"m c #945F5F",
"M c #966161",
"N c #996262",
"B c #9B6464",
"V c #9F6666",
"C c #A06767",
"Z c #A46969",
"A c #A76B6B",
"S c #A96D6D",
"D c #AD6F6F",
"F c #AF7070",
"G c #B47373",
"H c #BA7777",
"J c #BC7979",
/* pixels */
" .                                      .                 ..... ",
"761,,,>>>>>>>%.11------=.:2>->-------%+42,,,,,,>,>>,>>>>:#,411,o",
"cd77747646777-Odt6676672oqp7676667766,&dr7666766747666674&7t776#",
"vd77764666677:+dt6666672oqs7676464764,=se7666676766766674=qt776#",
"vd77766667667-+hi7466472+rd87776764661=de7677676774776466=tr776#",
"nd76767744447:+kt7644472+ts74776766661=he7766777764677644=tr776#",
"md76666776677>@zu7666672+isq4477666661-ke6677767644447664-it777$",
"Nfq6467677777>@cu6446674+sd76467777661-zr6446646666646674=pt777$",
"Vje776667677q>@msq777772@hhq6766677771:ni77777777q7777774=hi77q$",
"SDnvlhdsdppih2@CVlfpitit@hAvjjhfhhdii7-AVnvczlljfhhsdspsp-lnfdi$",
"=1,,,,>>>>>:>*X1q6422111o=q0666465311>O>2111111<,,1>>>:::+%1>-=.",
"%$####$#####OX=%$$$$$$$$%$######o$%$$$$#@@o%%$###@o#$##@@@+++++.",
"lp7446644444>%st4447666646444442=qt6664642=te46442=re4644444444%",
"vs7666664467>%dt7646677766667674-rt7676672=ie64663-ir6667764678=",
"md7666764447,*hr7766677776667664-tt6676672-se64674:pt7644674677=",
"Ns7676666677,*ht7646666776667774:st7666674-dr64464:dr7464644667=",
"Ns7677466667,=kr6746666466677774:dtq746674:ht76764:ht7766666467=",
"Vs7766646666,=lr6644676664777776:ht7766674:lt77774:ht7646776667=",
"Vdq767776466,=vt7766477776676677>kiq767662:ct76774>lt7766777667-",
"Fvsttttttrer2=Vlittttttereeqqqer>vzirqqqr7>Bjurqr7>Mjireqqqe7qe-",
"cVncczzlkkss6#xVncvcclxkkhddiiid:yVnkhiiiy;kBckiii=kVMnljdssiid-",
" ....ooooooOoXOO+++++++@@@@@@@@@OO+@@@@@@@OO+++OOOXo++OOooooooo ",
",2------=+:1>::->:::::*=51,,,,,>>>=;21,>>>=%<>-::---=--=======. ",
"jd7764474%qu7677676666,1pe7676646622tq67671,iq6677676766477676# ",
"jd7767474%ru7777777666,2iq7677646723iq777721pq6677777767766477# ",
"zf7667766=ti777777666413sq6666766625pq777711dq7667767674676667# ",
"vh7667764=ii777676466713dq6647776426de777611hq7667764644467677# ",
"vfq646674%pi767776447615hq6664667629hq766621hq6676766666677667$ ",
"nh7666774=dpq67676447616jq4666666730jq667722jq6466777677666677$ ",
"mjq776676=jdq77777777610ct667777762qzt76q712zr7666776777766667$ ",
"AAldittiu=cVzhhjdddiui40SmlljhfdpiqqAnjsip63Azhddspsiiiiiitttu% ",
",tq642223#>iyrqqqqq0551*qyqyqqq9953;0y05331*ihiistytq0qq774444+ ",
"oooooooooOOooX##@@@@@@##@@@O$*%%$$$$#O@##@@@@++++OoX+Ooooooo... ",
"st4222222242-*iq24233224222%5i6422222-073222222322=-t422222222,o",
"ld7666666677,=pq44667677474*0iq767664>yq6666666676-1iq467647774+",
"cp6676664677,=dq64767776664*ri7676704,se7646666666-1pq467777774+",
"vd7766667667,=hr64777666674*riq766774,dq7666666677:1dq664777776+",
"nd76664446771-kt67666677664*ysq776764,hr7666676776:1hq667666667@",
"Mh76466767471:lt77666667764=id7676664,jt7674464677>2jq767676666#",
"Nh76476776661:ct77766776764=sdq677664,lt7677476676>2je777766677#",
"Aleqqqqq77qq1:Nsrqq77q777q7=hltq7q0q7<npqqqqq78qqq>4vt77qq887qq#",
"VDNnMMvljfdhq=VANMvljjkdddd=ySBckdddd,MSNMMmvvzjdj21FCMnnvcvjhd#",
"o$$$$$$$$$$%#X@%%%%%****%%%O+******%%+%=;;;;;***%*@o======%%%%$.",
"o#++++++++@@@@@OO$##@###@@@##@@@@+++%$#@@@@@@@++OX+@Ooooooo.... ",
"2j7444444444232,:t64424442242222221,q74322322222,#6t4222222222>.",
"6jq6476774766671,pq77677764766764422tq67666646672$qt76646646772.",
"7lq66666677666721se67677764767764643pq76677666674%rt767666666q2.",
"7lq66447776767721de77676777676664634sq66666667774%tu76674666672.",
"qzq46666777677611hq76476666776666646fq67766666674%si76676676672.",
"rvq44646646666611lq46477666766666646jr74677666473%dp74664666672.",
"tne66467666676612zr66667646667766637le76677667774%hs74666647674.",
"iNieeqqqqqq8qqq22Msrqqqqqq7q770q7q4qMieqq7qqq7qq6%lje77qqq777q4.",
"4DVnnvcccllhppd0>VANmnvccclljfhdhdy3AAMnvljdhdsdp%hGVnnvzvzhdhe.",
" ooO+++++++++++O.@$###############@o@$##########@.+%%%%%$$$$##+ ",
"%$#@@###@###@#@#@@oo$#@@@+++++++oo%$#######@@@#@@O$$###@++@++++.",
"vi6444444444444444=>p74444424222,=iq4444444322442,qq64444444434=",
"mp7444477444777766-1iq66666664461-iq46666776646641rq76677774467-",
"Ni6666477446677666-1pq67667666671:sq67776777766742iq76777774777:",
"Ni7767667744447767-1sq66666766672>de66q77667766762sq76776776677>",
"Vi7667767667466666-2dq77676677672>he64777766776662de6477766777q>",
"As6666767667666666-2jq46667477662>le64677644464762ktq467767676q,",
"Sf7676776764667664-3je66776777661,lr67666666666444ct76446764777,",
"Gztrteerreeqeqqqqq-6nirqqeqq7qqe2,Vhttteqeqqqeqq72Mhtrtqqqq7qqe,",
"GHSAACNNNNmnnvzlcc12JGSACMvvclzvi=SGAAAVNNmnvzlll4mGAACNncvzjzv2"
};
