/* XPM */
static char *result[] = {
/* columns rows colors chars-per-pixel */
"64 64 11 1 ",
"  c #070707",
". c #140E0E",
"X c #1A1512",
"o c #1B1916",
"O c #231F19",
"+ c #23201D",
"@ c #2E2A25",
"# c #312220",
"$ c #3C3129",
"% c #454135",
"& c #555145",
/* pixels */
"X%%%%%%%%%%%%%%O                                O%%%%%%%%%%%%%%X",
"X$$$$$$$$$$$$$$O                                O$$$$$$$$$$$$$$X",
"XO$$$$$$$$$$$$OO                                OO$$$$$$$$$$$$OX",
"XOOOOOOOOOOOOOOO          ..........            OOOOOOOOOOOOOOOX",
"..XXXXXXXXXXXXX                     ..           XXXXXXXXXXXXX..",
"..XXOOOOOOOOXX                                    XXOOOOOOOOXX..",
"..XX###OOOOOOX      ...................           XOOOOOO###XX..",
"..XX########OX            ................        XO########XX..",
"..XX########OX            ..............          XO########XX..",
"..X##########X                                    X##########X..",
"..X##O&&&&O##X                                    X##O&&&&O##X..",
"..XX#O%$$%O##X                ...........         X##O%$$%O#XX..",
"..X##O%$$%O##X           ................         X##O%$$%O##X..",
"..X##O%$$%O##O        ...................         O##O%$$%O##X..",
"..XXOO%$$%O##O       .........oooo........        O##O%$$%OOXX..",
"..XX#O%$$%OOOO                                    OOOO%$$%O#XX..",
"..XX#O%$$%O##O                                    O##O%$$%O#XX..",
"..XX#O%$$%O##O                                    O##O%$$%O#XX..",
"..XO#O%$$%O##X                                    X##O%$$%O#OX..",
"..XO#O%$$%O#OX      .......................       XO#O%$$%O#OX..",
"..XO#O%$$%O#OX     .........................      XO#O%$$%O#OX..",
"..XO#O%$$%O#OX     .........................      XO#O%$$%O#OX..",
"..XO#O%$$%O#OX     .......oooooooooooo......      XO#O%$$%O#OX..",
"..XX#O%$$%O#XX                                    XX#O%$$%O#XX..",
"..XX#O%$$%O##X                                    X##O%$$%O#XX..",
"..X##O%$$%O#OX                                    XO#O%$$%O##X..",
"..X##O%$$%O#OX                                    XO#O%$$%O##X..",
"..X##O%$$%O#OX       oooooooooooooooooooooo       XO#O%$$%O##X..",
"..XOOO%$$%O#OX    ooooooooooooooooooooooooooo     XO#O%$$%OOOX..",
"..XOOO%$$%OOOX    ooooooooooooooooooooooooooo     XOOO%$$%OOOX..",
"..XX#O%$$%O#OX    oooooooo+++++++++++oooooooo     XO#O%$$%O#XX..",
"..X##O%$$%O#XO    ......................          OX#O%$$%O##X..",
"..XX#O%$$%O#XO    ..........................      OX#O%$$%O#XX..",
"..X##O%$$%O#XO     .........................      OX#O%$$%O##X..",
"..X##O%$$%O#XO       .....................        OX#O%$$%O##X..",
"..X##O%$$%O#XO      oooooooooooooooooooooooooo    OX#O%$$%O##X..",
"..X##O%$$%OOXX   ....oooooooooooooo+++++ooooooo   XXOO%$$%O##X..",
"..X##O%$$$OOOX    ..ooooo+++oooooo++++++++ooooo   XOOO$$$%O##X..",
"..XX#O%$$$OOOX    .oo++++++++++++++++++++++oooo   XOOO$$$%O#XX..",
"..XX#O%$$$O#OX      ...........................   XO#O$$$%O#XX..",
"..XX#O%$$$O#OX   ...............................  XO#O$$$%O#XX..",
"..X##O%$$$O##.   ..............................   .##O$$$%O##X..",
"..X##O%$$$O##.   ..............................   .##O$$$%O##X..",
"..XX#O%$$%O##.   ++++++++++++++++++++++++++++++   .##O%$$%O#XX..",
"..X##O%$$%O##.  +++++++++++++++++++++++++++++++   .##O%$$%O##X..",
"..X##O%$$%OOO.  +++++++++++++++++++++++++++++++   .OOO%$$%O##X..",
"..XX#O%$$%O##.  +++++++++@@@@@@@@@@@@+++++++++++  .##O%$$%O#XX..",
"..XX#O%$$%O##.  ......ooooooooooooooooooo.......  .##O%$$%O#XX..",
"..XX#O%$$%O##X   ....ooooooooooooooooooooooo....  X##O%$$%O#XX..",
"..XX#O%$$%O#OX   ....oooooooooooooooooooooooo...  XO#O%$$%O#XX..",
"..X##O%$$%O#OX      ...oooooooooooooooooooooo..   XO#O%$$%O##X..",
"..X##O%$$%O#OX   +++++++++++++++++++++++@++++++   XO#O%$$%O##X..",
"..X##O$$$%O#OX  ++++++++@@@@++++++@@@@@@@@@+++++  XO#O%$$$O##X..",
"..X##O$$$%O#OX  ++++++@@@@@@@@@@@@@@@@@@@@@@++++  XO#O%$$$O##X..",
"..X##O$$$$O##X  ++++++@@@@@@@@$$$$$$$$$@@@@@@+++  X##O$$$$O##X..",
"..XX##OOOO#OXX  oooooooooooooooooooooooooooooooo  XXO#OOOO##XX..",
"....XXXXXXXX...o.oooooooooooooooooooooooooooooo.....XXXXXXXX....",
"++++++++++++++%o.ooooooooooooooooooooooooooooo..o%++++++++++++++",
"$$$$@@@$@@$$$$%o...ooooooooooooooooooooooooo....o%$$$$@@$@@@$$$$",
"$$$$$$$$$$$$$$%o..++++++++++++@@++++++++++++++++o%$$$$$$$$$$$$$$",
"%%%%&&&&&&&&&&&o+++++++@@@@@@@@@@@@++++@@@@@++++o&&&&&&&&&&&%%%%",
"@@@@@@@@@@@@@@@o+++++@@@@@@@@@@@@@@@@@@@@@@@@@++o@@@@@@@@@@@@@@@",
"@@@+@@@@@@@@@@@o++@@@@@@@@@@@@@@@@@@@@@@@@@@@@@@o@@@@@@@@@@@+@@@",
"@@@+@+++++++@@@o+@@@@@$$$$$$$$$$$$$$$$$$$$$$$$$@o@@@+++++++@+@@@"
};
