/* XPM */
static char *result[] = {
/* columns rows colors chars-per-pixel */
"64 64 4 1 ",
"  c #06131F",
". c #0D2B45",
"X c #203C56",
"o c #544E68",
/* pixels */
"XXXXXXXXXXXX   .  .    XXXXXXXXX      XXXXXXXXXXXX   X       XXX",
"XXX XXXXXXXXX      XXXXXXX.XXXXXXXXXXXXXXXXXXXXXXXXXXXXXXXXXXXXX",
"XXX..XXXXXXXX  .  XXXXXXX..XX.XXX....XXX.......XXXX.XXXXXXXXXXXX",
"X...........X     X.............................................",
"............XX    X.... ........................................",
".....  ......X    X....  ........  .............................",
"....... .....X    X.............................................",
".............X    XX.................  .........................",
"......... ..XX    XX.......................   ..................",
".........   .X    .X......................... ...... ...........",
".............X    .X................................ ...........",
"...... .....XX    XX......................... ..................",
"...... .....XX    XX.. ..................... ..... .............",
".....  .....XX    XX... ........................................",
".......    XX     X       .....       ............    ...  ... .",
". .         X            .                ..                    ",
"                                                                ",
"                                                                ",
"                                                                ",
"                         .  .                                   ",
"                                                                ",
" XXXXXXXXXXXXXXXXXXXXXXXX   .    .XXXXXXXXXXX   XXXX           X",
"XXXXXXXX   XX.X.XX.XXXXXXX      .XXXXX.XXX.XXX XXXXXXX   XXXXXXX",
"XXXX.................X.XXXX .  .X.XX............XX...XXXXX..X.XX",
"X........................X. .  .X...............................",
"..........................X    X..................... ..........",
"..........................X    X......................  ........",
".........................XX    X....... ........................",
".  ......................XX    XX...... ........................",
"..........................X    XX......................... .....",
".....  ..................XX .  .X............  ........... .....",
".............  .....  ....X    XX........................ . ....",
"............ .............X    X......................... ......",
".........................XX    XX....................... .......",
".....................  ..XX    XX.. ............................",
"...  .   ..........       X    X    .....................    ...",
".         .      .                            ...    .          ",
"                                                                ",
"                                                                ",
"                                                                ",
"                                            .                   ",
"                                             .                  ",
"  .XoooXXXXXXX X.  .XX  XXXXX   XXXXXX...        .XX.. .   .   .",
"oooooooooXoooo.XXXXXXXXXXXXXXXXXX.XXXXXXXXX     .X... ..........",
"ooooXXXoXXXXXXXXX..XXX..XXXXX.XXX....XXXXXX      .X....XX.X...X.",
"oXXXXXX.XXXXXX............................XX .  ..XXXXXXXXXXXXXX",
"XXXXXXX.XXXXXX.......................X.X..oX .  ..XXXXXXXXXXXXXX",
"XXXXXXXXXXXXXX........................XXXXoo .  X.XXXXXXXXXXXXXX",
"XXXXXXXXXXXXXXX.......................XXXXXo  . X.XXXXXXXXXXXXXX",
"XXXXXXXXXXXXXXXX....................XXXXXXoo    ..XXXXXXXXXXXXXX",
"XXXXXXXXXXXXXXXX...................XXXXXXXXo    .XXXXXXXXXXXXXXX",
"XXXXXXXXX.XXXXXXX.................XXXXXXXXXX .  .XXXXXXXXXXXXXXX",
"XXXXXXXXX XXXXXXXX.X............XXXXXXXXXXXo .  .o.XXXXXXXXXXXXX",
"XXXXXXXXXXXXXXXXXX.XX.........XXXXXXXXXXXXoo .  XoXXXXXXXXXXXXXX",
"XXXXXXXXXXXXXXXXXXXXXXXXXXXXXXXXXXXXXXXXXXoo .  .oXXXXXXXXXXXXXX",
"XXXXXXXXXXXXXXXXXXXXXXXXXXXXXXXXXXXXXXXXXXoo . ..oXXXXXXXX.XXXXX",
"XXXXXXXXXXXXXXXXXXXXXXXXXXXXXXXXXXXXXXX.XXoo ....oXXXXXXXXXXXXXX",
"ooooXXXoXXXX.XXXXXXX.XXX...X..XXX.X.......oo ....XooXXooXXXoXX.X",
"oXXXXXXXX..........XX.......X..............o  ..XXXXXooooooooooo",
"ooooooooooooooooXXXXXXXXX ..... ..........   ....XooooooooXooooo",
"oooooooooooooooXXXXXXXXXX                   ...XXXoooooooooooooX",
"ooooooooooooooXXXX XXX               .       ..XXoXXXoXXXXXXXXXo",
"..XX...XXXXX.X   .     X.. .    ... .         ...XXXoXXXXXooooXX",
"..............oX           .          ....X..... XXXXXXX....    "
};
