/* XPM */
static char *_9c979656ded4972caba8879ce69af472SeEd0CfGTj0lNwN[] = {
/* columns rows colors chars-per-pixel */
"64 64 195 2 ",
"   c None",
".  c #3E261D",
"X  c #41281F",
"o  c #40271E",
"O  c #442C22",
"+  c #4B3226",
"@  c #4C352A",
"#  c #4A3429",
"$  c #533629",
"%  c #553B2D",
"&  c #593D2E",
"*  c #523426",
"=  c #563E32",
"-  c #5A3F31",
";  c #5A422F",
":  c #564234",
">  c #5B4334",
",  c #5C4738",
"<  c #5E493A",
"1  c #624534",
"2  c #6A4632",
"3  c #644936",
"4  c #6B4A36",
"5  c #634B3B",
"6  c #6B4D3A",
"7  c #744E37",
"8  c #724F3A",
"9  c #67503F",
"0  c #6C513D",
"q  c #74543D",
"w  c #7B553C",
"e  c #77583F",
"r  c #7A583F",
"t  c #6B5342",
"y  c #675141",
"u  c #735642",
"i  c #745A45",
"p  c #7B5A42",
"a  c #755C49",
"s  c #795D4A",
"d  c #785743",
"f  c #7C624D",
"g  c #7D6652",
"h  c #85563C",
"j  c #84593D",
"k  c #885C3F",
"l  c #815D44",
"z  c #8B5D41",
"x  c #865A49",
"c  c #895D4B",
"v  c #825646",
"b  c #846147",
"n  c #8B6346",
"m  c #85634B",
"M  c #8B634C",
"N  c #8C694D",
"B  c #926344",
"V  c #936649",
"C  c #946B4D",
"Z  c #9A6B4B",
"A  c #9A6846",
"S  c #9C704E",
"D  c #816652",
"F  c #8E6752",
"G  c #856A53",
"H  c #8C6C53",
"J  c #8A6E58",
"K  c #946653",
"L  c #936D53",
"P  c #9A6D54",
"I  c #946B59",
"U  c #996E5A",
"Y  c #8D715A",
"T  c #957255",
"R  c #9C7354",
"E  c #9F7857",
"W  c #94745B",
"Q  c #9C745B",
"!  c #94785F",
"~  c #9D7A5C",
"^  c #A06F4E",
"/  c #A1714E",
"(  c #A37553",
")  c #A47854",
"_  c #A1755A",
"`  c #A37B5B",
"'  c #AA7E5A",
"]  c #9E7661",
"[  c #957A63",
"{  c #9C7D63",
"}  c #957761",
"|  c #A17663",
" . c #A57D62",
".. c #A87F63",
"X. c #A6805F",
"o. c #AB825E",
"O. c #9E8166",
"+. c #978068",
"@. c #9E846B",
"#. c #A58263",
"$. c #AB8464",
"%. c #AC8866",
"&. c #A3856A",
"*. c #A9866A",
"=. c #A4886B",
"-. c #AC8B6B",
";. c #B18665",
":. c #B28A65",
">. c #B0876A",
",. c #B28C6B",
"<. c #B4916D",
"1. c #BA946F",
"2. c #A58C71",
"3. c #AD8D71",
"4. c #B28F73",
"5. c #AB9175",
"6. c #AD947A",
"7. c #AD997D",
"8. c #B59473",
"9. c #B99673",
"0. c #BA9976",
"q. c #B59779",
"w. c #BA9678",
"e. c #B4997B",
"r. c #BC9C7B",
"t. c #BEA07D",
"y. c #C29E7D",
"u. c #C09977",
"i. c #C2A17E",
"p. c #C9A27F",
"a. c #B79E81",
"s. c #BA9F83",
"d. c #BCA384",
"f. c #BEA788",
"g. c #BFA98A",
"h. c #C29F80",
"j. c #C4A483",
"k. c #CAA684",
"l. c #C6A985",
"z. c #CAA986",
"x. c #C4A788",
"c. c #C4AA8A",
"v. c #CBAC8A",
"b. c #D0AF8C",
"n. c #CEB18E",
"m. c #C6B08F",
"M. c #D1B18E",
"N. c #CCB291",
"B. c #D3B593",
"V. c #D5B997",
"C. c #D8BA97",
"Z. c #D6BB99",
"A. c #DABD9B",
"S. c #DEC39F",
"D. c #DDC19E",
"F. c #DFC49F",
"G. c #DDC19E",
"H. c #DFC3A0",
"J. c #DFC5A1",
"K. c #DFC6A2",
"L. c #DEC3A1",
"P. c #E0C6A1",
"I. c #E1C6A1",
"U. c #E1C7A2",
"Y. c #E1C6A3",
"T. c #E1C5A1",
"R. c #E1C7A4",
"E. c #E1C6A3",
"W. c #E2C8A3",
"Q. c #E3C9A3",
"!. c #E1C8A3",
"~. c #E1C8A4",
"^. c #E3C9A4",
"/. c #E2C9A5",
"(. c #E3C9A6",
"). c #E3CAA7",
"_. c #E2C9A6",
"`. c #E4C9A4",
"'. c #E4CBA7",
"]. c #E5CAA5",
"[. c #E4C9A6",
"{. c #E3CAA8",
"}. c #E3C9A8",
"|. c #E4CBA8",
" X c #E4CBAA",
".X c #E5CCAB",
"XX c #E4CCA9",
"oX c #E5CDAC",
"OX c #E6CDAD",
"+X c #E6CDAE",
"@X c #E7CEAE",
"#X c #E6CEAC",
"$X c #E5CCAA",
"%X c #E8CFAD",
"&X c #E8D0AE",
/* pixels */
"                                                                                                                                ",
"                                                            +.6.d.f.d.N.V.f.                                                    ",
"                                                  2.5.e.n.Z.H.P.^.].P.P.P.P.S.Z.m.e.                                            ",
"                                            [ e.N.G.W.].].].].W.P.W.P.P.P.P.P.P.W.P.A.c.                                        ",
"                                        ! e.V.J.P.W.^.^.^.].].^.P.P.P.P.P.P.P.P.P.P.^.].G.g.                                    ",
"                                    f =.c.Z.S.P.P.W.^.^.^.].].W.W.P.P.P.P.P.P.P.P.P.P.P.P.^.Z.7.                                ",
"                                  i O.c.Z.S.P.P.P.W.^.^.^.^.^.W.W.W.W.P.P.P.P.P.P.P.P.P.P.P.W.J.c.                              ",
"                                0 Y d.A.H.P.P.P.P.^.^.^.^.^.^.W.W.^.^.^.W.P.P.P.P.P.P.J.J.J.P.W.^.N.                            ",
"                              3 i O.v.S.J.J.P.P.P.^.^.^.^.^.^.^.W.^.^.^.|.].^.^.^.^.^.^.^.P.P.^.^.P.f.                          ",
"                            ; 6 p *.n.Z.S.J.P.^.^.^.^.^.^.].].^.^.|.XX@X@X@X@X@XXXXXXXXX}.}.}.|.|.^.A.7.                        ",
"                          % 3 q p #.l.B.V.A.S.P.W.^.^.^.].].XXXX|.@X@X@X@X@X@X@X@X@X@X@X@X@XXX|.|.^.H.N.                        ",
"                          > 0 e p T 0.v.v.n.V.A.F.P.^.^.^.].XXXXXX@X@X@X@X@X@X@X@X@X@X@X@X@X@X|.^.R.H.V.a.                      ",
"                        & 6 q q e b *.j.z.v.n.B.A.S.W.^.^.].|.XX@X@X@X@X@X@X@X@X@X@X@X@X@X|.}.^.R.P.S.A.v.                      ",
"                        > 0 e q e d ~ 0.j.z.v.n.B.A.P.W.^.^.^.^.|.@X@X@X@X@X@X@X@XXXXX|.|.}.^.P.H.S.S.A.n.                      ",
"                      ; 4 q e e e e N 8.j.l.z.n.B.Z.F.P.P.^.^.^.^.^.}.}.}.|.|.|.}.}.}.^.^.R.P.H.S.S.S.V.v.e.                    ",
"                      > 6 q d d e e b #.r.j.z.N.B.Z.S.P.P.P.P.P.P.^.^.^.^.^.R.^.^.^.^.P.P.J.F.S.S.S.A.B.v.j.                    ",
"                      > 0 e e d e e d ~ 0.j.v.B.B.Z.S.P.P.P.P.P.P.P.P.P.P.P.J.J.J.J.J.S.S.S.S.S.S.S.V.v.v.x.                    ",
"                    : 3 q e e d e e e H 8.i.v.B.V.A.J.P.P.P.P.P.P.P.P.P.P.P.J.H.S.S.S.S.S.S.S.A.S.A.n.l.k.j.                    ",
"                    > 3 0 e e d e e i m 8.j.n.B.Z.G.P.^.].].W.P.P.P.P.^.].].^.R.P.P.P.J.J.S.S.A.A.V.z.j.j.j.                    ",
"                    > 3 q d p d d d d H 0.v.B.V.A.H.R.].XXXXXX|.].|.|.|.XXXX@XXX|.|.|.^.R.S.A.A.A.v.l.j.j.j.                    ",
"                    > 3 e p p p p l N -.v.B.V.Z.S.P.].XX%X&X&X%X@X@X@X@X@X@X@X@X@XXXXX|.^.P.S.A.B.z.j.j.j.j.r.                  ",
"                    > 3 d l l l l N 3.v.B.V.Z.G.H.W.].XX%X&X&X&X%X%X%X@X@X@X@X@X@X@X@XXX|.].P.A.n.j.y.y.y.j.y.                  ",
"                    > 6 d b b b N -.n.V.A.S.H.J.J.W.].XX@X@X&X&X@X@X@X@XXX|.XXXXXXXX|.|.].|.].H.B.j.y.y.y.j.y.                  ",
"                    > 3 d m m N #.q.q.d.d.d.c.N.S.].].|.XXXXXXXX|.}.^.^.^.|.|.|.|.].].].XXXX|.^.G.v.p.p.p.p.y.                  ",
"                    > 6 l M M m q > % & > > 1 0 D @.c.G.P.S.G.S.J.J.J.J.P.^.^.].].^.G.N.s.2.[ =.c.V.v.j.j.j.h.                  ",
"                    > e M N l 3 1 1 1 3 6 3 1 % + + % i } 8.i.l.B.V.V.C.A.S.A.c.3.J t 1 - % $ % 1 [ b.v.k.j.y.                  ",
"      j.B.c.q.      > l L n n M L T ~ #.*.*.#.T m q 1 % * % b <.p.v.M.v.y.#.s > * $ 1 u m L ` #.W p 9.B.M.k.y.      Z.Z.B.      ",
"    %.,.,.0.l.0.` 3 4 L ~ V R ` ` ` E T m i u 0 q p l j q 2 7 X.9.y.i.0.%.d 6 l H Q $.,.u.p.k.v.k.0.y.B.C.M.j.9.Z.A.Z.l.w.y.    ",
"    S Z A V R ,.*.q 0 Q %.E E ` R n 7 s = . @ + O @.H w j j h S 9.y.y.9...P _ R J 4 > 6 6 H 3.9.v.v.z.M.S.A.v.c.Z.v.>._ P  .    ",
"  C ) ( $.' Z E %.q e Q -.%.#.E C z h m > O O X % x.v.T B n h C i.B.B.z._ V n N 2.% O % o t a.i  .M.B.A.P.H.B.v.v.l.w. .P `     ",
"  ` o.( <.;./ Z  .0 q T #.,.$.` Z V B C L N p q p L E E Z B z ,.V.J.P.Z.$.Z R E -.u % - > Y 8.#.y.B.H.R.^.R.V.4.$.j.V.r._ $.    ",
"  *.:.) :.:.) A V 6 6 N ~ $.,.$.` R P P R ` $.` R n k B Z _ 9.n.Z.R.}.S.z. .` ` _  .,.r.t.j.j.b.A.J.^.|.|.].Z. ._ $.N.v.$.r.    ",
"    %.` 9.:.) Z B 7 6 p N ` <.<.%.$.$.$.$.$.$.,.,.#.` ,.i.z.j.l.A.}.}.J.A.B.j.w.r.v.C.A.A.S.P.R.|.|.|.XXXX].A.$.`  .l.v.j.B.    ",
"      $.9.:.) ^ B 7 3 6 p N #.1.8.8.8.8.9.0.0.r.r.r.i.l.j.r.8.j.A.}.}.J.A.S.S.A.A.A.H.^.|.XX@X@X%X%X@XOX|.].Z.$.` $.v.V.Z.      ",
"      *.8.,./ / A w 1 4 q b L $.8.0.r.t.i.i.i.i.j.z.j.t.0.9.r.v.A.}.}.H.Z.A.A.S.A.Z.A.H.H.R.|.@X@X@X@XXX|.R.v. . .9.V.A.Z.      ",
"      &.9.9.( / B w 1 1 8 l N ` %.8.r.j.l.l.l.l.z.l.r.r.t.i.j.v.A.}.}.H.V.Z.A.A.G.A.Z.Z.A.H.R.|.|.XX|.|.P.V.8. .0.V.A.Z.        ",
"        r.,.$.' A h 1 1 4 r C ` $.$.<.r.j.l.l.l.v.c.t.t.j.l.v.n.L.}.}.H.B.B.Z.A.S.A.Z.V.Z.A.A.H.R.R.R.H.V.l.{ w.V.A.Z.Z.        ",
"        e.r.$.<.' V 1 > 4 r V ' o.o.%.<.r.j.l.l.v.c.r.8.j.N.V.A.H.R.|.R.Z.B.V.A.A.A.A.Z.V.V.Z.A.A.A.Z.B.v.q.&.B.H.Z.A.          ",
"          r.0.i.1.R 4 1 3 e V ` o.o.$.:.8.t.l.v.v.j.#.%.v.Z.A.A.H.K.R.R.A.B.B.V.A.A.A.Z.V.B.B.B.B.B.v.v.l.=.5.S.H.A.G.          ",
"          *.r.z.y.E 4 > 1 8 n ) ' o.:.:.,.9.j.v.v.9.R 9.q.-.B.A.A.H.H.H.V.b.B.V.A.A.A.Z.V.B.v.v.v.v.v.k.j.O.r.P.J.J.            ",
"            8.j.i.` 4 - > 4 l R ' $.:.:.:.<.0.l.z.,.C -.W 4 W v.V.V.B.j.{ 9.B.V.A.A.A.C.B.n.v.v.v.v.k.j.q.W c.].R.H.            ",
"              -.8.` 4 > > 4 p C ' $.:.:.,.,.9.i.l.0.R E W 4 2 Q 0.q.-.H d ,.B.Z.A.A.Z.C.B.M.v.v.v.k.k.r.&.f j.G.Z.              ",
"                      - > 3 e n ) o.:.:.:.<.9.i.l.r.X.L p 6 q l L T L W 3.B.H.H.S.A.Z.V.V.B.v.v.v.k.l.8.Y t                     ",
"                      & - 1 6 l C ' $.:.:.<.9.i.v.v.8.L > + @ > d u 3 5 [ A.|.R.H.A.A.Z.V.B.M.v.v.z.r.O.a                       ",
"                      & & > 3 e n E $.,.,.<.0.j.v.q.J > + O O + % @ & 3 a 5.L.|.R.H.A.Z.V.M.M.v.v.l.3.G t                       ",
"                      & & > > 4 e C o.:.,.9.i.r.O.u = @ % 3 i t > 3 f i t g 5.B.R.^.J.A.V.B.M.v.v.0.! a 5                       ",
"                        > - > > 6 b E $.,.9.*.f > = 3 m ~ $.<.1.*.4.r.8.Y f g [ s.H.}.H.Z.B.M.v.j.&.D 0                         ",
"                        > : = > 3 e C o.,.#.i 3 u Y *.*.Q K K  .>...| ..4.3.} D g 6.J.R.A.V.B.v.5.J i <                         ",
"                          = = > > 6 l ` %.L i Y -.*.L v v x x x c c c c M U  .*.{ Y c.^.A.V.v.q.W a 5                           ",
"                            = = > 1 0 L $.T Q ,.$.L c M M M M c c c M F c x x L 8.3.7.H.Z.B.r.} s 0 ,                           ",
"                            = = = > 3 p X.$.$.,.$.` U K K I P P K K U Q ] Q ] #.9.r.s.Z.B.q.W s t 3 >                           ",
"                              = = > > 6 L ,.,.,.;.$. .U L I U U Q ] | | ] ]  .8.r.j.v.v.3.G a t 3 >                             ",
"                                = = > > q E ;.,.,.;.$. .Q F m F I I I W  .*.8.r.j.j.r.[ s t 9 < >                               ",
"                                = = = > 1 u R $.,.>.$.$.$.` N d d m W -.8.w.r.h.r.&.D t 5 5 < >                                 ",
"                                  = = = > 1 u L ..,.,.8.8.8.,.,.3.8.r.y.r.0.0.3.Y a y 5 < , >                                   ",
"                                    = = > > 1 u H  .,.9.0.0.0.r.r.r.r.r.9.4.{ f t 5 5 < > :                                     ",
"                                      = > > > 1 q m W &.-.3.3.3.3.3.3.=.{ J a 5 5 5 3 > :                                       ",
"                                        : : = > > 6 p G J J Y W W ! W D a t 5 3 < > > :                                         ",
"                                          : : > > > 1 0 u i a s s s i t 5 < , > : : :                                           ",
"                                              > > > > > 3 5 5 5 5 5 5 < > > : : :                                               ",
"                                                  - - > > > > > > > > : : : :                                                   ",
"                                                      - : : : : : : : : :                                                       ",
"                                                                                                                                ",
"                                                                                                                                "
};
