/* XPM */
static char *_299d735c25f4f4c9f6e59eb57f76255BtOIR0ViZMh0o3yl[] = {
/* columns rows colors chars-per-pixel */
"64 64 99 2 ",
"   c None",
".  c #5F4B1F",
"X  c #604C1F",
"o  c #624D20",
"O  c #665122",
"+  c #6B5524",
"@  c #6F5825",
"#  c #725A26",
"$  c #775E28",
"%  c #785F29",
"&  c #7D622A",
"*  c #82662C",
"=  c #866A2E",
"-  c #896C2F",
";  c #8D6F31",
":  c #8F7131",
">  c #947433",
",  c #9C7B37",
"<  c #9F7E38",
"1  c #A37F36",
"2  c #A07E38",
"3  c #A48036",
"4  c #A68239",
"5  c #AA853A",
"6  c #AE893D",
"7  c #B38D3E",
"8  c #B68F40",
"9  c #B79040",
"0  c #BB9442",
"q  c #C09744",
"w  c #C29945",
"e  c #C79E49",
"r  c #C49D4A",
"t  c #C69D48",
"y  c #C89F49",
"u  c #C89F4A",
"i  c #C8A04B",
"p  c #CAA14B",
"a  c #CAA14C",
"s  c #CBA24C",
"d  c #C9A34F",
"f  c #CCA34C",
"g  c #CCA34D",
"h  c #CDA44D",
"j  c #CDA44E",
"k  c #CEA54E",
"l  c #CFA64F",
"z  c #C9A350",
"x  c #D0A750",
"c  c #D1A850",
"v  c #D2A951",
"b  c #D2A952",
"n  c #D3AA52",
"m  c #D4AB53",
"M  c #D7AE55",
"N  c #D5AE57",
"B  c #D9B056",
"V  c #D9B057",
"C  c #DAB157",
"Z  c #DCB359",
"A  c #DDB459",
"S  c #DEB55A",
"D  c #DFB65B",
"F  c #E0B75C",
"G  c #E1B85D",
"H  c #E0B95F",
"J  c #E5BC60",
"K  c #E8BF62",
"L  c #E9C063",
"P  c #EAC163",
"I  c #EAC164",
"U  c #EBC265",
"Y  c #ECC365",
"T  c #EDC466",
"R  c #EEC567",
"E  c #F1C869",
"W  c #F2C96A",
"Q  c #F3CA6A",
"!  c #F3CA6B",
"~  c #F4CB6B",
"^  c #F4CB6C",
"/  c #F5CC6C",
"(  c #F6CD6D",
")  c #F7CE6D",
"_  c #F7CE6E",
"`  c #F8CF6F",
"'  c #F9CF6F",
"]  c #FAD170",
"[  c #FBD270",
"{  c #FBD271",
"}  c #FCD371",
"|  c #FCD372",
" . c #FDD472",
".. c #FED573",
"X. c #FFD573",
"o. c #FFD673",
"O. c #FFD674",
"+. c #FFD774",
"@. c #FFD775",
/* pixels */
"                                                            w w w w w                                                           ",
"                                                        w w w w w w w w                                                         ",
"                                                    w w w w w w w w w w w w                                                     ",
"                                        w w w w w w w w w w w w w w w w w w w w w w w w w                                       ",
"                                  w w w w w w w w w w w w w w w w w w w w w w w w w w w 0 4 1 3                                 ",
"                                w w w w w w w w w w w w w w w w w w w w w w w w w w w w 7 1 1 1 3                               ",
"                              w w w w w w w w w w w w w w w w w w w w w w w w w w w w 0 5 1 1 1 1                               ",
"                              w w w w w w w w w w w w w w w w w w w w w w w w w w w w 7 1 1 1 1 1                               ",
"                              w w w w w w w w w w w w w w w w w w w w w w w w w w w 0 3 1 1 1 1 1                               ",
"                                w w w w w w w w w w w w w w w w w w w w w w w w w 9 3 1 1 1 1 1 3                               ",
"                                w w w w w w w w w w w w w w w w w w w w w w w 0 7 3 1 1 1 1 1 1                                 ",
"                                  w w w w w w w w w w w w w w w w w w w w 0 7 4 1 1 1 1 1 1 1                                   ",
"                                    q w w w w w w w w w w w w w w w 0 9 6 4 1 1 1 1 1 1 1 1                                     ",
"                                      5 7 7 0 0 0 0 0 0 0 0 9 7 6 5 4 1 1 1 1 1 1 1 1 1 1 3                                     ",
"                                      1 1 1 1 1 1 1 3 1 1 1 1 1 1 1 1 1 1 1 1 1 1 1 1 1 1                                       ",
"                                      H z d d d d d d d d d d d d d d d d d d d d d d d M                                       ",
"                                   . . . . . . . . . . . . . . . . . . . . . . . . . . . . . .                                  ",
"                                  |  . . . . . . . . . . . . . . . . . . . . . . . . . . . .|                                   ",
"                                     . . . . . . . . . . . . . . . . . . . . . . . . . . . .                                    ",
"                                   . . .O.O.O.O.O.O.O.O.O.O.O.O.O.O.O.O.O.O.O.O.O.O. . . . . .                                  ",
"                                    { ~ T U Y Y Y Y Y Y Y Y Y Y Y Y Y Y Y Y Y Y Y T |  . . .|                                   ",
"                                    w w w w w w w w w w w w w w w w w w w w w w w w S |  . . . .                                ",
"                              w w w w w w w w w w w w w w w w w w w w w w w w w w w w F  . .{  . .                              ",
"                          w w w w w w w w w w w w w w w q q q w w w w w w w w w w w w t L O.^ H _  .|                           ",
"                      w w w w w w w w w w w w w w w w 2 & & & 5 w w w w w w w w w w w w g _  .S x W O.~ v                       ",
"                    w w w w w w w w w w w w w w w w w > . X o < w w w w w w w w w w w w w S O._ u d W O.T p                     ",
"                w w w w w w w w w w w w w w w w w w w > o o o 2 w w w w w w w w w w w w w d _  .C q j ~ O.K w 6                 ",
"              w w w w w w w w w w w w w w w w w w 0 0 : o o o , 0 0 q w w w w w w w w w w w L O.L w w v {  .Z 7 3               ",
"            w w w w w w w w w w w w w w w 7 2 : * & $ + o o o + # $ & = > , 5 7 0 w w w w w S O.W t w w F  ._ d 5 1             ",
"          w w w w w w w w w w w w w w 5 * + o X X X o o o o o o o o X X X o o O - w w w w w m  .' d w w u W O.J 7 1 1           ",
"        w w w w w w w w w w w w w 0 : O X o o o o o o o o o o o o o o o o o o X & q w w w w v | { j w w w C  .' p 3 1 3         ",
"      w w w w w w w w w w w w w w ; o o o o o o o O # + o o o # $ # + O o X X X & q w w w w x | { j w w w t W O.F 5 1 1 3       ",
"      w w w w w w w w w w w w w 6 O o o o o o o & 5 0 > o o o < 0 0 7 5 < : & + * q w w w w v | { j w w w w F O.W 9 1 1 1       ",
"    w w w w w w w w w w w w w w > o o o o o o + 8 w w > o o o 2 w w w w w w 0 8 6 w w w w w M  ._ p w w w w j { | t 1 1 1 3     ",
"    w w w w w w w w w w w w w w ; X o o o o o + 8 w w > o o o 2 w w w w w w w w w w w w w w F O.W t w w w w w C S 0 1 1 1 1     ",
"  w w w w w w w w w w w w w w w > o o o o o o o & 5 0 > o o o 2 t w w w w w w w w w w w w w U O.L w w w w w w w w 0 3 1 1 1 3   ",
"  w w w w w w w w w w w w w w w 5 O o o o o o o o O @ + o o o = 4 6 8 0 w w w w w w w w w t T  .C w w w w w w w w 0 3 1 1 1 1   ",
"  w w w w w w w w w w w w w w w q - o o o o o o o o o o o o o o o O + $ = < 7 w w w w w w w g v t w w w w w w w w 0 3 1 1 1 1   ",
"w w w w w w w w w w w w w w w w w 0 ; O X o o o o o o o o o o o o o o o X o + = 6 w w w w w w w w w w w w w w w w 0 3 1 1 1 1 3 ",
"w w w w w w w w w w w w w w w w w w w 5 - # O o X X o o o o o o o o o o o o o X + 4 w w w w w w w w w w w w w w w 0 3 1 1 1 1 3 ",
"w w w w w w w w w w w w w w w w w w w w w 0 5 > = & # O o o o o X o o o o o o o o + 7 w w w w w w w w w w w w w w 0 1 1 1 1 1 1 ",
"w w w w w w w w w w w w w w w w w w w w w w w w w 0 0 ; o o o & * # o o o o o o o X : w w w w w w w w w w w w w w 9 1 1 1 1 1 1 ",
"w w w w w w w w w w w w w w w w w w w w w w w w w w w > o o o 2 w 0 , O o o o o o X & 0 w w w w w w w w w w w w w 7 1 1 1 1 1 1 ",
"w w w w w w w w w w w w w w w w w w w w w w w w w w w > o o o 2 w w w = X o o o o o $ 0 w w w w w w w w w w w w w 7 1 1 1 1 1 3 ",
"w w w w w w w w w w w w w w w w < > 5 0 w w w w w w w > o o o 2 w w w * X o o o o X & q w w w w w w w w w w w w w 6 1 1 1 1 1 3 ",
"w w w w w w w w w w w w w w w w : X O # = > 4 7 0 0 0 > o o o , 0 7 > O o o o o o o > w w w w w w w w w w w w w w 5 1 1 1 1 1 1 ",
"w w w w w w w w w w w w w w w w > X o o X o o O + $ % @ o o o @ # O o o o o o o X & 0 w w w w w w w w w w w w w 0 3 1 1 1 1 1 1 ",
"w w w w w w w w w w w w w w w w : . o o o o o o o o X o o o o o o o o o o o X o & 7 w w w w w w w w w w w w w w 7 1 1 1 1 1 1 1 ",
"w w w w w w w w w w w w w w w w 4 & # O o o X X X o o o o o o o o X X X o O & < 0 w w w w w w w w w w w w w w q 5 1 1 1 1 1 1 3 ",
"w w w w w w w w w w w w w w w w w q 0 6 2 > = & % # # O o o o + # % * ; < 6 0 w w w w w w w w w w w w w w w w 7 1 1 1 1 1 1 1 1 ",
"w w w w w w w w w w w w w w w w w w w w w w w q 0 0 0 ; o o o , 0 0 w w w w w w w w w w w w w w w w w w w w 0 4 1 1 1 1 1 1 1 3 ",
"  w w w w w w w w w w w w w w w w w w w w w w w w w w > o o o 2 w w w w w w w w w w w w w w w w w w w w w 0 5 1 1 1 1 1 1 1 1 3 ",
"  w w w w w w w w w w w w w w w w w w w w w w w w w w > o o o 2 w w w w w w w w w w w w w w w w w w w w 0 4 1 1 1 1 1 1 1 1 1   ",
"  w w w w w w w w w w w w w w w w w w w w w w w w w w > X o o < w w w w w w w w w w w w w w w w w w 0 7 3 1 1 1 1 1 1 1 1 1 1   ",
"    8 0 w w w w w w w w w w w w w w w w w w w w w w w , + + + 4 w w w w w w w w w w w w w w w w 0 7 4 1 1 1 1 1 1 1 1 1 1 1     ",
"    3 4 7 0 0 w w w w w w w w w w w w w w w w w w w w 0 9 9 9 0 w w w w w w w w w w w w q 0 7 5 3 1 1 1 1 1 1 1 1 1 1 1 1 1     ",
"      1 1 1 4 5 7 7 0 0 0 w w w w w w w w w w w w w w w w w w w w w w w w w q 0 0 0 7 6 5 3 1 1 1 1 1 1 1 1 1 1 1 1 1 1 1       ",
"        1 1 1 1 1 1 3 3 4 5 5 6 7 7 7 7 9 0 0 0 0 0 0 0 0 0 0 9 7 7 7 7 6 5 5 4 3 1 1 1 1 1 1 1 1 1 1 1 1 1 1 1 1 1 1 1         ",
"          1 1 1 1 1 1 1 1 1 1 1 1 1 1 1 1 1 3 3 3 3 3 3 3 1 1 1 1 1 1 1 1 1 1 1 1 1 1 1 1 1 1 1 1 1 1 1 1 1 1 1 1 1 1           ",
"            1 1 1 1 1 1 1 1 1 1 1 1 1 1 1 1 1 1 1 1 1 1 1 1 1 1 1 1 1 1 1 1 1 1 1 1 1 1 1 1 1 1 1 1 1 1 1 1 1 1 1 3             ",
"                1 1 1 1 1 1 1 1 1 1 1 1 1 1 1 1 1 1 1 1 1 1 1 1 1 1 1 1 1 1 1 1 1 1 1 1 1 1 1 1 1 1 1 1 1 1 1 1                 ",
"                      1 1 1 1 1 1 1 1 1 1 1 1 1 1 1 1 1 1 1 1 1 1 1 1 1 1 1 1 1 1 1 1 1 1 1 1 1 1 1 1 1 1                       ",
"                            3 1 1 1 1 1 1 1 1 1 1 1 1 1 1 1 1 1 1 1 1 1 1 1 1 1 1 1 1 1 1 1 1 1 1 3                             ",
"                                        3 3 3 1 1 1 1 1 1 1 1 1 1 1 1 1 1 1 1 1 1 3 3                                           "
};
