/* XPM */
static char *result[] = {
/* columns rows colors chars-per-pixel */
"64 65 7 1 ",
"  c #0D2B45",
". c #203C56",
"X c #544E68",
"o c #8D697A",
"O c #D08159",
"+ c #FFAA5E",
"@ c None",
/* pixels */
"@@@@@@@@@@@@@@@@@@@@@@@@@@@@@@@@@@@@@@@@@@@@@@@@@@@@@@@@@@@@@@@@",
".o+oooooooOOX.    .XX.oOOOOOooooooooooooooooooooooooooooooooo+o.",
"o++OOOOOO+OOO..  .XX++++++++++++++++++O++OOOOOOOOOO++++OOOOOO++o",
"oOO+++++++OOO..  .O+OOOOOOOOOOO++++++++++++++OOO+++++++++++++OOo",
"oOOO++O++OOOOX.. .O+OOOOOOOOOOOooOooOOOOOOOOOOOOOoooooooOO++OOOo",
"o+OOO+OOOOOOOO. ..OO+OOOOOOOOOOOOOOOOOOOOOOOOOOOOOOOoOoOOO+OOO+o",
"o+OOOO+OOOOOoO....OO+OOOOOOOOOO+OOOOO+++++++++++OOOOOOOO++OOOO+o",
"oOOOO+++++oooO....Oo+++++++ooooo+++++ooooooooooo+++++++++++OOOOo",
"o+OOO+ooooooOO. ..OO+ooooooooooooooooooooooooooooooooooooo+OOO+o",
"o+OOO+ooooooOO.. .OO+ooooooooooooooooooooooooooooooooooooo+OOO+o",
"o+OOO+oooooooO.. .oO+ooooooooooooooooooooooooooooooooooooo+OOO+o",
"o+OOO+oooooooO.. .oO+ooooooooooooooooooooooooooooooooooooo+OOO+o",
"oOOOooooooooOO.. .OOooooooooooooooooooooooooXoooooooooooooooOOOo",
"oOOOOoooooooOO.. .O+ooXoooooooooooooooooooXXOooooooooooooooOOOOo",
"o+OOO+ooooooOO. ..O+oooXoooooooooooooooooOOooooooooooooooo+OOO+o",
"o+OO+o+oooXOOX....OXXXXXXXoooooooXXXXXooooooooooXXXXXXooo+o+OOOo",
"OX+++XXXXXXXO.. ...XXXXXXoXXXXXXXXXXXXXXXXXXXXXXXXXXXXXXXXX++++O",
"..XXXXXXXX..... ...XX..XXXX.XXXX..X.XXX.XX....XXX...X.XXXXXXXX+.",
"............... ...............     .. .........................",
" ...............                      . ....................... ",
"  ..............          .     ..  ...  .....................  ",
" .  ......... ..                     ...       .............  . ",
"..    ... ooooooooooooooo. ..   .Xooooooooooo. .oooo.. ...    ..",
".O+OOOOOOO ooXoXooXooooooo...  .XoooooXXXooooooOOOOOOOOOOOOOOOO.",
"X+O+OOOOO++OOOOOOOXXXoXoooo .  XoXooXXXXXXXXXXXXXXXXXXOOOOOOOOOX",
"X+ooO++XXXXXXXXXXXXXXXXXXoX  . XoXXXXXXXXXXXXXXXXXXXXXXXXOOOoooX",
"X+ooooXXXXXXXXXXXXXXXXXXXXo    oXXXXXXXXXXXXXXXXXXXXXXXXXXOoooOX",
"Xooooo+XXXXXXXXXXXXXXXXXXXo    oXXXXXXXXXXXXXXXXXXXXXXXXXoooOooX",
"X+oooo+XXXXXXXXXXXXXXXXXXoo    oXXXXXXXXXX.XXXXXXXXXXXXXXoooooOX",
"XOooooOXXXXXo.XXXXXXXXXXXoo    oXXXX.XXXXXoXXXXXXXXXXXXXXOooooOX",
"XOoXOoOXXXXXXXXXXXXXXXXXXXo    oXXXXo.XXXXXXXXXXXXXXXXXXXOooooOX",
"XoooooOXXXXXXXXXXXXXXXXXXoo    ooXXXXoXXXXXXXXXXXXXXXXXXXOoooooX",
"XOooooOXXXXXXXXXXXXX.XXXXXo    oXXXXXXXXXXXXXXXXXX.XXXXXXOooooOX",
"XOoooo+XXXXXXXXXXXXo.XXXXXo .  oXXXXXXXXXXXXXXXXXo.XXXXXXOooooOX",
"XOoooo+XXXXXXXXXXXXXXXXXXoo .  ooXXXXXXXXXXXXXXXXoXXXXXXXoooooOX",
"XooOOXooOOooooXXXXXXX..XXoo    ooXX.XXXXXXXXXXXXXXXX..XXXoXOOooX",
"XoX....X.XoXXXXXXXX.......o    o....XXXXXX.XXXX.........X....XoX",
"..XX......X......X........     .................................",
"       XX................          .....  ...............       ",
"                                                                ",
" . ...                                                   ...... ",
"   .  ..                                                 ... .  ",
"......                                                    . .  .",
"ooo. oooooooooooooXXXXXX....X   .......                   ......",
"XXXOoooooooooooXXX......................     ..ooooooooooooooO.X",
"XOXXX.XOOOXXXXXXXXXXXXXXXXXXXXXXXXXXXXXooo   ..ooooooooooOOOOoXX",
".XoooOoXXXXXXXXXXXXXXXXXXXXXXXXXXXXXXXXoooo  ..oooooooooOoooooXX",
".oooooXXXXXXXXXXXXXXXXXXXXXXXXXXXXXXXXXXXOo  ..ooooXXXXXooooooOX",
" ooooXXXXXXXXXXXXXXXXXXXXXXXXXXXXXXXXXXXXOo  ..ooXXXXXXXooooooOX",
" ooooOXXXXXXXXXXXXXXXXXXXXXXXXXXXXXXXXXXXoo  ..ooXXXXXXXOoooooOX",
" XoooXXXXXXXX  XXXXXXXXXXXXXXXXXXXX XXXXXoo   .ooXX.XXXXOoooooOX",
" oXooOXXXXXXX  XXXXXXXXXXXXXXXXXXXX X XXXoo  ..ooXXoXXXXooooooOX",
" ooooOXXXXXXXX   XXXXXXXXXXXXXXXXXXXXXXXXoo  ..ooXXXXXXX.oooooOX",
" OooooXXXXXXXXoX   XXXXXXXXXXXXXXXXXXXXXXoo  ..ooXXXXXoX..XoooOX",
" +ooooXXXXXXXXXXXXXXXXXXXXXXXXXXXXXXXXXXXoo  ..ooXXXXXXXoOOoooOX",
" OoooOXXXXXXXXXXXXXXXXXXXXXXXXXXXXXXXXXXXoo  .XXXXXXXXXXOoooooXX",
" Ooo.OXXXXXXXXXXXXXXXXXXXXXXXXXXXXXXXXXXXoo  .OXXXOXXXXXOoooooOX",
" +ooXOooXXXXXXXXXXXXXXXXoXXXXXXXXXXXXXXXXoo  ..OOOoXXXXXooooooOX",
" XooooO. XXXXXX..X.. XXXXXXXXXX   X    XXOo  ..ooXXXXXXXoXooooOX",
" ooXXOXooooooooooooOOoXXXXXooXXX..XXXXo .XX  .X..........ooooOX.",
" OooO XoXooooOOoXXXXoXXXXXooXX.Xoooooooooo     .o+Xoooo....OoO. ",
" ooOoXooooooXXXXXXXXXXXXXXXXXooooooooooXoXO   XoOXoooooooooo.o. ",
" .OOooooO+oXXXXXXXXXXXXXXXXXooooooooooooXXo   X+XXooooooooooO   ",
" .OOOoooOooooooooooXXXXoooooXXXoooooooooooX    .oo ooooooooO    ",
"                                                                "
};
